<svg id="Layer_1" data-name="Layer 1" xmlns="http://www.w3.org/2000/svg" viewBox="0 0 1920 1080"><defs><style>.cls-1{fill:#c1272d;}.cls-2{fill:#c14448;}.cls-3{fill:#8c1e21;}</style></defs><title>welcomescreen</title><path class="cls-1" d="M1956.75,25.17a1718.69,1718.69,0,0,1,6,191.74c-1.68,64.11-7,128.39-17.45,192.24q-7.82,47.89-19.87,95.26-6.06,23.64-13.32,47.06t-15.93,46.46c-5.74,15.38-12.05,30.58-18.77,45.64s-13.93,29.94-21.83,44.52A516.13,516.13,0,0,1,1800,770.92a508.21,508.21,0,0,1-71.15,70.51A556.65,556.65,0,0,1,1646,897.34c-14.57,8.08-29.52,15.44-44.73,22.18q-11.46,5-23.12,9.43c-7.8,2.92-15.64,5.7-23.56,8.27q-23.76,7.65-48.12,13t-49,8.47a705.19,705.19,0,0,1-98.41,5.39c-32.7-.32-65.16-2.5-97.33-5.64s-64.09-7.33-95.79-11.84-63.19-9.49-94.59-14.34c-62.77-9.77-125.19-19.09-187.7-25.48S758.56,896.86,696,898.05a1173.16,1173.16,0,0,0-186.47,18q-23.07,4.17-46,9.21c-3.82.83-7.63,1.7-11.44,2.58l-5.71,1.32-5.75,1.4c-7.68,1.86-15.34,3.74-23,5.7s-15.27,4-22.9,6-15.22,4.15-22.81,6.33-15.15,4.37-22.72,6.62-15.1,4.55-22.62,6.92c-30.12,9.34-60,19.44-89.7,29.83s-59.31,21.07-88.78,32q-22.11,8.2-44.11,16.7t-43.8,17.48c-14.51,6-29,12.13-43.38,18.5L6.1,1081.45l-10.73,4.89c-3.59,1.6-7.14,3.28-10.71,4.92s-7.13,3.32-10.68,5q-21.31,10.1-42.34,20.78c-14,7.13-27.9,14.53-41.71,22.07q-41.37,22.73-81.15,48.31c-52.91,34.24-103.24,72.83-148.9,117.4l-.76-.66A662.27,662.27,0,0,1-277.47,1232,876.67,876.67,0,0,1-205.18,1168q18.92-15.06,38.56-29.16c13.05-9.46,26.37-18.56,39.82-27.45q40.38-26.64,82.72-50.15,5.28-3,10.58-5.86c3.54-1.93,7.07-3.89,10.63-5.78,7.1-3.81,14.26-7.54,21.41-11.25,14.35-7.36,28.76-14.59,43.33-21.51,29.12-13.84,58.54-27.07,88.47-39s60.25-22.85,90.88-32.73,61.55-18.78,92.55-27.22q23.26-6.33,46.6-12.27t46.69-11.76L418.75,891l11.69-2.83,11.76-2.82q5.91-1.41,11.83-2.75,23.7-5.39,47.59-9.86A1316.42,1316.42,0,0,1,694.69,851c64.76-2.52,129.61-.21,193.82,5.8s127.82,15.43,190.76,25.76,125.32,21.54,187.55,29c31.11,3.75,62.18,6.48,93.14,7.44a636.13,636.13,0,0,0,92.21-3.49,467,467,0,0,0,89.27-19.05c7.23-2.34,14.41-4.82,21.5-7.52s14.11-5.61,21.07-8.65A388.18,388.18,0,0,0,1696.93,805c22-20.85,41.71-43.88,59.82-68.12a803.5,803.5,0,0,0,50.1-76.05q11.58-19.74,21.94-40.33c6.9-13.71,13.48-27.63,19.6-41.8s11.9-28.52,17.37-43c2.65-7.28,5.37-14.55,7.87-21.91,1.26-3.68,2.6-7.32,3.79-11l3.66-11.09c4.73-14.84,9.27-29.76,13.4-44.83l1.59-5.64,1.51-5.67,3-11.34,2.86-11.4,1.42-5.7,1.35-5.72c14.63-61,25-123.32,32.89-186.15s12.78-126.28,16.64-190Z"/><path class="cls-2" d="M1949.37-108.62q8.28,98.73,7.32,198.21c-.13,8.29-.19,16.57-.38,24.86s-.39,16.58-.73,24.86c-.58,16.58-1.31,33.17-2.4,49.75q-3,49.76-9.08,99.44l-1.57,12.41-1.71,12.4-.86,6.21-.94,6.19-1.87,12.39c-1.37,8.25-2.64,16.52-4.19,24.75l-2.24,12.36-2.42,12.33-1.21,6.17-1.3,6.16c-.87,4.1-1.7,8.22-2.61,12.32-1.83,8.19-3.66,16.39-5.7,24.55s-4.12,16.33-6.23,24.48c-2.26,8.12-4.46,16.27-6.9,24.35a871.64,871.64,0,0,1-34.25,95.85,559.92,559.92,0,0,1-48.88,90.49,501.22,501.22,0,0,1-31.08,41.52,492.6,492.6,0,0,1-35.41,38.14,481.16,481.16,0,0,1-39.33,34.22c-3.48,2.61-6.88,5.32-10.41,7.86s-7,5.14-10.63,7.57l-5.37,3.71c-1.8,1.22-3.64,2.38-5.45,3.58s-3.63,2.4-5.49,3.53l-5.54,3.44-2.77,1.72-2.82,1.65-5.62,3.3c-1.87,1.11-3.8,2.12-5.7,3.19s-3.79,2.13-5.71,3.15l-5.78,3c-1.92,1-3.84,2-5.81,3-3.9,1.93-7.8,3.87-11.68,5.66q-11.68,5.46-23.64,10.33t-24.12,9.12A547.15,547.15,0,0,1,1479,884.08a697.55,697.55,0,0,1-101.73,7.34c-33.84.17-67.48-1.73-100.83-4.7s-66.41-7.12-99.25-11.71-65.48-9.66-98-14.69c-65-10.13-129.63-20-194.34-27q-24.25-2.65-48.53-4.68c-16.19-1.35-32.37-2.56-48.56-3.47-32.38-1.78-64.78-2.76-97.15-2.46s-64.73,1.68-97,4.39-64.37,6.77-96.31,12q-23.94,4-47.71,9T402.28,859q-47.19,12-93.19,27.83c-7.68,2.6-15.28,5.39-22.91,8.12s-15.18,5.62-22.72,8.58-15,6-22.57,8.94-15,6.14-22.4,9.32c-3.73,1.57-7.45,3.14-11.15,4.77l-11.13,4.82-11.08,4.92c-3.7,1.62-7.37,3.32-11,5-14.72,6.69-29.37,13.51-43.92,20.57-29.08,14.09-58,28.68-86.29,44.43q-21.21,11.82-42.11,24.29c-13.9,8.34-27.66,17-41.34,25.71A1623.89,1623.89,0,0,0-197,1172.13q-37.72,31.39-74,64.77c-24.22,22.22-47.95,45.06-71.55,68.16l-.75-.66q29.76-39.63,62.32-77.18c21.69-25,44.2-49.43,67.66-73A1329.41,1329.41,0,0,1-62.24,1023.49q20.12-15,40.89-29.06l10.4-7,10.47-6.93Q10,973.62,20.71,967,42,953.68,63.84,941.13t44.3-23.83c14.94-7.63,30.14-14.76,45.44-21.62s30.79-13.31,46.42-19.39c7.79-3.1,15.66-6,23.51-8.93s15.76-5.69,23.69-8.38Q271,850.78,295,843.44c32-9.83,64.27-18.66,96.69-26.78,16.21-4,32.52-7.92,48.89-11.42s32.83-6.73,49.33-9.63c33-5.89,66.22-10.41,99.57-13.83s66.82-5.48,100.31-6.42c67-1.88,134,1.17,200.32,7.87s132,16.77,197.06,27.55,129.57,22.14,194,29.37c32.19,3.58,64.36,6,96.4,6.52q24,.32,47.88-.92,11.92-.68,23.79-1.75t23.62-2.76a476.87,476.87,0,0,0,91.93-22c7.44-2.56,14.79-5.39,22.07-8.37s14.49-6.15,21.61-9.51c1.77-.85,3.59-1.66,5.31-2.54l5.21-2.62c1.74-.86,3.46-1.77,5.16-2.71l5.12-2.78c3.38-1.92,6.75-3.86,10.07-5.87l5-3.08,2.47-1.55,2.43-1.61,4.85-3.23c1.61-1.08,3.17-2.25,4.76-3.36s3.18-2.24,4.74-3.4l4.66-3.51c6.19-4.69,12.16-9.69,18.06-14.76a383.45,383.45,0,0,0,33-33,465.63,465.63,0,0,0,29.27-36.5c9.2-12.62,17.84-25.69,26.06-39a882.87,882.87,0,0,0,44.87-83.28q10.18-21.52,19.22-43.74c6.08-14.77,11.64-29.8,17-45,21.15-60.66,37.09-123.65,49.41-187.57,6.28-31.95,11.52-64.17,16.2-96.53l1.72-12.15,1.61-12.16c1.14-8.1,2.11-16.23,3.14-24.36,2-16.25,3.79-32.55,5.55-48.86,6.84-65.28,11.31-131,15.09-196.88Z"/><path class="cls-3" d="M1957.06-71.2q8.3,99.11,7.31,199c-.13,8.31-.18,16.64-.39,25s-.4,16.64-.75,25-.59,16.64-1,25l-.64,12.48-.77,12.49q-3,49.95-9.2,99.82c-2,16.62-4.47,33.21-7,49.8-1.37,8.28-2.68,16.57-4.24,24.83-.76,4.14-1.48,8.28-2.28,12.41l-2.42,12.38c-3.35,16.5-6.86,33-11,49.38s-8.39,32.76-13.28,49-10.1,32.42-15.87,48.46-12,32-18.84,47.67-14.33,31.21-22.59,46.34-17.23,29.93-27,44.26a493.77,493.77,0,0,1-67.3,79.54c-3.17,3-6.4,5.94-9.58,8.91s-6.53,5.8-9.85,8.63c-6.65,5.66-13.4,11.19-20.36,16.47A467.07,467.07,0,0,1,1676.72,855c-7.52,4.45-15.09,8.81-22.85,12.82l-5.8,3-5.88,2.9c-3.92,2-7.81,3.73-11.73,5.57q-11.78,5.37-23.81,10.17t-24.3,9c-16.34,5.56-32.95,10.29-49.72,14.24-8.38,2-16.81,3.72-25.26,5.3s-16.93,3-25.43,4.17-17,2.23-25.52,3.09-17,1.58-25.55,2.1c-17,1.09-34.07,1.51-51,1.48-34,0-67.7-2.1-101.15-5.22s-66.61-7.36-99.56-12-65.69-9.78-98.32-14.83c-65.24-10.16-130.1-20-195.06-26.83q-24.36-2.57-48.73-4.52t-48.76-3.28c-32.5-1.7-65-2.43-97.53-2A1228.4,1228.4,0,0,0,496.8,877.9q-24,4.22-47.84,9.35l-11.9,2.62-11.88,2.74c-7.91,2-15.84,3.84-23.71,5.93Q354.16,910.81,308,927.05c-15.36,5.36-30.61,11-45.78,16.92s-30.19,12.08-45.16,18.39c-7.46,3.22-15,6.35-22.38,9.66s-14.86,6.56-22.27,9.89l-11.09,5-11.06,5.13c-3.69,1.68-7.35,3.43-11,5.16s-7.36,3.45-11,5.22c-14.67,7-29.24,14.18-43.75,21.52s-28.94,14.85-43.21,22.69-28.46,15.83-42.5,24.09L-11.71,1077l-10.46,6.35c-6.95,4.25-13.91,8.5-20.8,12.87a1664.65,1664.65,0,0,0-159.45,114.49q-38.25,31-75,64.18c-24.5,22.08-48.45,44.86-72.11,68.07l-.76-.66c20-26.5,41.05-52.17,63.06-77.11s45-49.12,68.83-72.42A1359.6,1359.6,0,0,1-65.16,1063.44q20.35-14.78,41.29-28.77c14-9.31,28.06-18.44,42.39-27.22C47.14,989.86,76.35,973.13,106.4,958q22.53-11.37,45.56-21.7c3.84-1.72,7.71-3.37,11.56-5.06s7.72-3.34,11.6-5c7.75-3.27,15.55-6.41,23.37-9.52q23.49-9.19,47.3-17.5t47.88-15.75q48.16-14.85,96.95-27.21c8.11-2.14,16.28-4,24.42-6.06l12.27-2.91,12.29-2.8q24.63-5.46,49.46-10A1365,1365,0,0,1,689.59,813a1544.08,1544.08,0,0,1,201.17,7c66.66,6.38,132.63,16.44,198,27.22s130.13,22.3,194.79,29.78c32.33,3.72,64.63,6.33,96.8,7a641.48,641.48,0,0,0,95.77-4.75A479.8,479.8,0,0,0,1568.6,858q11.22-3.81,22.23-8.2t21.78-9.36l5.36-2.52c1.8-.83,3.55-1.71,5.28-2.59l5.23-2.63c1.73-.9,3.44-1.85,5.15-2.77,6.88-3.69,13.56-7.74,20.16-11.9a354.93,354.93,0,0,0,71-60.75c21-23.22,39.34-48.78,56-75.5q12.45-20.06,23.72-41T1826,598.35a884.64,884.64,0,0,0,36.57-88.89C1884,448.62,1900,385.4,1912.46,321.25c3.16-16,6-32.14,8.78-48.29s5.25-32.35,7.54-48.6l1.74-12.19,1.62-12.21c1.14-8.14,2.14-16.3,3.16-24.45,2-16.32,3.82-32.68,5.59-49.06,6.89-65.53,11.38-131.47,15.17-197.64Z"/><path class="cls-3" d="M1281,720a391.68,391.68,0,0,0,76.51,26.86,345.78,345.78,0,0,0,78.64,9.81,311.66,311.66,0,0,0,38.87-2.25,279.06,279.06,0,0,0,37.75-7.45,261.41,261.41,0,0,0,36-12.54,258.69,258.69,0,0,0,33.76-17.3c43.35-26,78.59-63.94,102.72-107.72a295.16,295.16,0,0,0,34.34-106.09l.53-4.62c.17-1.54.38-3.08.47-4.63l.73-9.27.35-9.28c.09-1.55.06-3.1.06-4.64V466.2c.06-3.09-.15-6.18-.25-9.27l-.18-4.63c-.09-1.54-.24-3.08-.36-4.62l-.36-4.62c-.06-.74-.12-1.59-.18-2.25l-.11-1-.13-1.06c-.36-2.84-.79-5.86-1.32-8.88-1-6-2.26-12.19-3.66-18.29s-3-12.19-4.83-18.22a321.32,321.32,0,0,0-12.63-35.55,312.37,312.37,0,0,0-16.56-33.71A274.39,274.39,0,0,0,1636,265a278.46,278.46,0,0,0-28.39-24.11c-5.14-3.52-10.16-7.25-15.56-10.42l-4-2.48c-.67-.41-1.32-.84-2-1.23l-2.06-1.13-8.24-4.58a275.13,275.13,0,0,0-71.33-25.8,289,289,0,0,0-77-5.74,293.25,293.25,0,0,0-39,4.83,312.54,312.54,0,0,0-38.47,9.9,340.43,340.43,0,0,0-73.22,34.33l-.31-.39a274.8,274.8,0,0,1,67.36-48.61A289.87,289.87,0,0,1,1382.75,173,301.29,301.29,0,0,1,1424,162.09a292.59,292.59,0,0,1,170.67,19.35l10,4.62,2.51,1.16c.83.41,1.64.86,2.46,1.28l4.9,2.59c6.61,3.33,12.87,7.29,19.25,11.09A308.46,308.46,0,0,1,1669.48,229a299.1,299.1,0,0,1,31,32.06,303.4,303.4,0,0,1,26,36.11,349,349,0,0,1,20.7,39.12,365.51,365.51,0,0,1,15.59,41.24,349.59,349.59,0,0,1,10.5,43.07c.66,3.69,1.22,7.43,1.73,11.35l.19,1.48.17,1.57c.11,1,.17,1.89.26,2.84l.46,5.59c.15,1.86.33,3.72.45,5.58l.24,5.59c.16,3.73.34,7.45.28,11.18v5.59c0,1.87,0,3.73-.09,5.59l-.48,11.17-.91,11.13c-.13,1.85-.4,3.69-.62,5.54l-.7,5.54a334.56,334.56,0,0,1-8.86,43.63,321.9,321.9,0,0,1-14.7,41.93,326.88,326.88,0,0,1-20.07,39.55,331.12,331.12,0,0,1-25.26,36.4,306.92,306.92,0,0,1-29.95,32.58,319.12,319.12,0,0,1-34.2,28,290.37,290.37,0,0,1-37.82,22.66l-4.91,2.48c-1.63.85-3.33,1.54-5,2.31l-5,2.25c-1.68.74-3.34,1.52-5,2.16l-10.22,4c-3.44,1.24-6.91,2.39-10.37,3.57-1.74.57-3.45,1.19-5.2,1.72l-5.28,1.5-5.27,1.49-2.63.74c-.88.25-1.78.43-2.66.64l-10.67,2.43c-3.56.76-7.16,1.31-10.74,2-1.79.3-3.57.67-5.37.9l-5.41.69c-3.61.43-7.19,1-10.81,1.19s-7.22.6-10.83.81l-10.82.33a303.71,303.71,0,0,1-42.93-2.58,322.82,322.82,0,0,1-81.53-22.06,347.62,347.62,0,0,1-37.51-18.29,268.93,268.93,0,0,1-34.44-23Z"/><path class="cls-1" d="M1280.81,720a340.51,340.51,0,0,0,73.72,28,300.3,300.3,0,0,0,38.06,6.92,267.23,267.23,0,0,0,111.92-10.56c5.92-1.88,11.76-4,17.55-6.23s11.46-4.78,17.09-7.38A277.56,277.56,0,0,0,1571.51,713c41.42-26.54,75.12-64,98-107.07a299,299,0,0,0,26.12-68,287.29,287.29,0,0,0,8.59-71.88c-.07-6-.29-12.06-.74-18.06-.09-1.51-.24-3-.37-4.5l-.2-2.25-.1-1-.11-1c-.33-2.73-.76-5.68-1.24-8.61a314.71,314.71,0,0,0-8.1-35.6,334.18,334.18,0,0,0-12.06-34.75,306.27,306.27,0,0,0-15.81-33,273.58,273.58,0,0,0-43-58.42A252.63,252.63,0,0,0,1565,224.54l-2-1.15-2-1.09-4-2.18-4.14-2.12-4.16-2.06c-5.58-2.69-11.22-5.25-16.94-7.59s-11.53-4.49-17.39-6.46-11.8-3.68-17.79-5.24a249.08,249.08,0,0,0-111.75-2.84q-9.4,1.84-18.71,4.42-4.65,1.31-9.28,2.75c-3.08,1-6.16,2-9.23,3-24.52,8.53-48.23,20.39-71.08,34.33l-.16-.21A287.61,287.61,0,0,1,1341,189.3q4.52-2.49,9.11-4.82t9.34-4.44q9.42-4.29,19.23-7.87a262.81,262.81,0,0,1,40.46-11,256.43,256.43,0,0,1,84.72-1.23,281.51,281.51,0,0,1,41.66,9.55c6.81,2.12,13.55,4.43,20.18,7l5,2,4.93,2,4.92,2.18,2.46,1.1,2.43,1.15A282,282,0,0,1,1657,233.39a305.53,305.53,0,0,1,54.29,67.45A349.53,349.53,0,0,1,1731,339.18a372.58,372.58,0,0,1,14.88,40.32,351.77,351.77,0,0,1,10,42.05c.61,3.63,1.16,7.26,1.64,11.13l.17,1.49.16,1.5.26,2.72c.17,1.81.35,3.62.47,5.44q.87,10.88.91,21.79a323.67,323.67,0,0,1-11.11,86,329.33,329.33,0,0,1-14,41c-2.78,6.66-5.73,13.24-8.93,19.71s-6.62,12.81-10.22,19.06a322.07,322.07,0,0,1-52.64,68.18A314,314,0,0,1,1630,727.66c-5.77,4.28-11.7,8.34-17.73,12.21-3,2-6.08,3.81-9.16,5.65s-6.2,3.58-9.36,5.27c-6.31,3.39-12.7,6.62-19.22,9.55s-13.13,5.63-19.81,8.11a297.88,297.88,0,0,1-41,11.69,270.63,270.63,0,0,1-84.31,4.25,279.05,279.05,0,0,1-41-7.71q-10-2.71-19.8-6.13T1349.41,763a271.28,271.28,0,0,1-68.75-42.82Z"/></svg>